# xmcd
#
# Track frame offsets:
#	150
#	76794
#	146622
#	172116
#	226792
#	274285
#
# Disc length: 4053 seconds
#
# Revision: 0
# Processed by: cddbd v1.5.2PL0 Copyright (c) Steve Scherf et al.
# Submitted via: audiograbber 1.83.01
#
DISCID=490fd306
DTITLE=Ludwig van Beethoven - Symphony No. 3 - Overtures [Beethoven Orchester B
DTITLE=onn - Stefan Blunier] [MDG SACD]
DYEAR=2016
DGENRE=Classical
TTITLE0=Symphony No. 3 op. 55 E flat major "Eroica" - Allegro con brio
TTITLE1=Symphony No. 3 op. 55 E flat major "Eroica" - Marcia funebre (Adagio as
TTITLE1=sai)
TTITLE2=Symphony No. 3 op. 55 E flat major "Eroica" - Scherzo (Allegro vivace)
TTITLE3=Symphony No. 3 op. 55 E flat major "Eroica" - Finale: Allegro molto
TTITLE4=Die Weihe des Hauses op. 124 - Overture
TTITLE5=König Stephan op. 117 - Overture
EXTD=
EXTT0=
EXTT1=
EXTT2=
EXTT3=
EXTT4=
EXTT5=
PLAYORDER=
